<svg xmlns="http://www.w3.org/2000/svg" width="32" height="32" fill="none" viewBox="0 0 32 32">
  <path fill="#000" d="M30.65 11.422c-.348-.825-.924-1.419-1.667-1.718l-.01-.004a2.906 2.906 0 0 0-1.063-.2h-.04c-1.703.026-3.44 1.473-4.324 3.6-.648 1.557-.723 3.23-.2 4.478.347.825.925 1.42 1.671 1.719l.009.003c.338.133.699.2 1.062.2 1.719 0 3.475-1.447 4.375-3.603.64-1.555.71-3.227.186-4.475ZM23.846 20.6c-.982-.59-1.91-1.148-2.516-2.151C19.658 15.675 18.648 14 16 14s-3.66 1.675-5.337 4.45c-.607 1.004-1.537 1.563-2.522 2.155-1.13.679-2.297 1.38-2.8 2.76a4.181 4.181 0 0 0-.291 1.563c0 2.246 1.75 4.075 3.9 4.075 1.11 0 2.29-.385 3.54-.792 1.2-.391 2.442-.795 3.516-.795 1.074 0 2.313.404 3.51.795 1.247.405 2.422.789 3.534.789 2.147 0 3.894-1.828 3.894-4.075a4.19 4.19 0 0 0-.297-1.563c-.504-1.38-1.671-2.083-2.8-2.761ZM9.375 11.803c.744.933 1.688 1.447 2.658 1.447.132 0 .264-.01.395-.03 2.023-.297 3.284-2.766 2.87-5.624-.173-1.202-.636-2.322-1.298-3.152C13.258 3.514 12.312 3 11.343 3c-.132 0-.264.01-.396.03-2.023.297-3.283 2.766-2.87 5.624.173 1.2.636 2.319 1.298 3.15Zm10.198 1.418c.13.02.263.029.395.029.97 0 1.914-.514 2.658-1.447.662-.83 1.121-1.949 1.296-3.15.414-2.857-.846-5.326-2.87-5.625a2.688 2.688 0 0 0-.395-.03c-.97.002-1.915.515-2.657 1.446-.663.83-1.125 1.95-1.297 3.153-.414 2.857.846 5.326 2.87 5.624ZM6.974 19.3l.01-.003c.745-.3 1.322-.893 1.667-1.718.524-1.25.45-2.921-.197-4.478C7.56 10.947 5.804 9.5 4.086 9.5a2.9 2.9 0 0 0-1.062.2l-.009.003c-.744.297-1.32.893-1.666 1.718-.524 1.25-.45 2.921.197 4.478.895 2.153 2.65 3.601 4.368 3.601a2.9 2.9 0 0 0 1.06-.2Z"/>
</svg>
