<svg xmlns="http://www.w3.org/2000/svg" width="32" height="32" fill="none" viewBox="0 0 32 32">
  <path fill="#000" d="m16 7.432-.73.683a1 1 0 0 0 1.46 0L16 7.432Zm-3.421 17.63c-1.934-1.569-4.19-3.626-5.955-5.878-1.785-2.276-2.957-4.613-2.957-6.76h-2c0 2.823 1.506 5.603 3.382 7.995 1.896 2.417 4.28 4.581 6.27 6.196l1.26-1.554ZM3.667 12.423c0-3.873 1.69-6.267 3.781-7.087 2.087-.817 5.005-.233 7.821 2.778l1.462-1.366C13.547 3.344 9.799 2.27 6.719 3.475 3.643 4.68 1.667 7.989 1.667 12.424h2Zm17.013 14.19c1.99-1.615 4.375-3.78 6.27-6.197 1.877-2.392 3.383-5.172 3.383-7.996h-2c0 2.15-1.173 4.486-2.957 6.762-1.765 2.252-4.021 4.309-5.955 5.877l1.259 1.553Zm9.653-14.193c0-4.433-1.976-7.742-5.053-8.946-3.08-1.207-6.827-.134-10.01 3.273l1.46 1.367c2.817-3.011 5.735-3.596 7.822-2.779 2.09.819 3.781 3.213 3.781 7.085h2ZM11.32 26.615C13.012 27.99 14.189 29 16 29v-2c-.964 0-1.564-.432-3.421-1.939l-1.26 1.554Zm8.102-1.555C17.564 26.567 16.964 27 16 27v2c1.81 0 2.988-1.01 4.681-2.385l-1.26-1.555Z"/>
  <path stroke="#000" stroke-linecap="round" stroke-width="2" d="M24.667 12H22m0 0h-2.667M22 12V9.333M22 12v2.667"/>
</svg>
