<svg xmlns="http://www.w3.org/2000/svg" width="32" height="32" fill="none" viewBox="0 0 32 32">
  <path fill="#000" d="M16.8 13.6c.675 0 1.344.006 2.029.253.66.237 1.392.721 2.105 1.792a.8.8 0 0 0 1.332-.888c-.888-1.331-1.888-2.048-2.896-2.41C18.408 12 17.488 12 16.832 12H16.8a.8.8 0 0 0 0 1.6Zm-4-5.6v1.264c-4.626 1.376-8 5.662-8 10.736a.8.8 0 0 0 .8.8h20.8a.8.8 0 0 0 .8-.8 11.2 11.2 0 0 0-8-10.736V8a3.2 3.2 0 1 0-6.4 0ZM16 6.4A1.6 1.6 0 0 1 17.6 8v.912a11.2 11.2 0 0 0-3.2 0V8A1.6 1.6 0 0 1 16 6.4Zm0 4a9.6 9.6 0 0 1 9.568 8.8H6.432A9.6 9.6 0 0 1 16 10.4Zm-10.4 12a2.4 2.4 0 0 0 0 4.8h20.8a2.4 2.4 0 0 0 0-4.8H5.6Zm-.8 2.4a.8.8 0 0 1 .8-.8h20.8a.8.8 0 1 1 0 1.6H5.6a.8.8 0 0 1-.8-.8Z"/>
</svg>
