<?xml version="1.0" encoding="iso-8859-1"?>
<!-- Uploaded to: SVG Repo, www.svgrepo.com, Generator: SVG Repo Mixer Tools -->
<svg fill="#000000" version="1.1" id="Layer_1" xmlns="http://www.w3.org/2000/svg" xmlns:xlink="http://www.w3.org/1999/xlink" 
	 viewBox="0 0 511.999 511.999" xml:space="preserve">
<g>
	<g>
		<path d="M328.216,230.826h-3.289c15.22-16.63,24.52-38.764,24.52-63.031v-47.789V89.59V0H162.552v89.59v30.417v47.789
			c0,24.267,9.301,46.4,24.52,63.031h-3.289c-63.076,0-114.393,51.316-114.393,114.393v166.78h373.219v-166.78
			C442.609,282.142,391.293,230.826,328.216,230.826z M192.969,30.417h126.062V89.59H192.969V30.417z M192.969,120.007h126.062
			v47.789c0,34.755-28.276,63.031-63.032,63.031s-63.031-28.276-63.031-63.031V120.007z M412.192,481.583h-30.417V335.08h-30.417
			v146.502H160.641V335.08h-30.417v146.502H99.807V345.219c0-46.304,37.672-83.976,83.976-83.976h144.433
			c46.304,0,83.976,37.672,83.976,83.976V481.583z"/>
	</g>
</g>
<g>
	<g>
		<rect x="231.333" y="280.163" width="49.344" height="30.417"/>
	</g>
</g>
<g>
	<g>
		<rect x="231.333" y="330.858" width="49.344" height="30.417"/>
	</g>
</g>
<g>
	<g>
		<rect x="231.333" y="381.554" width="49.344" height="30.417"/>
	</g>
</g>
<g>
	<g>
		<rect x="231.333" y="432.249" width="49.344" height="30.417"/>
	</g>
</g>
</svg>