<?xml version="1.0" encoding="iso-8859-1"?>
<!-- Uploaded to: SVG Repo, www.svgrepo.com, Generator: SVG Repo Mixer Tools -->
<svg fill="#000000" version="1.1" id="Layer_1" xmlns="http://www.w3.org/2000/svg" xmlns:xlink="http://www.w3.org/1999/xlink" 
	 viewBox="0 0 511.999 511.999" xml:space="preserve">
<g>
	<g>
		<path d="M359.823,235.27c-22.12,33.92-60.394,56.391-103.823,56.391c-43.429,0-81.703-22.47-103.823-56.391
			c-47.753,13.748-82.787,57.832-82.787,109.949v166.78h60.834V335.08h30.417v176.919h190.715V335.08h30.417v176.919h60.834v-166.78
			h0.001C442.609,293.102,407.576,249.018,359.823,235.27z M280.672,493.081h-49.344v-30.417h49.344V493.081z M280.672,442.386
			h-49.344v-30.417h49.344V442.386z M280.672,391.691h-49.344v-30.417h49.344V391.691z M280.672,340.995h-49.344v-30.417h49.344
			V340.995z"/>
	</g>
</g>
<g>
	<g>
		<rect x="162.55" width="186.894" height="69.311"/>
	</g>
</g>
<g>
	<g>
		<path d="M319.031,99.729H192.969h-30.417v20.278v47.789c0,51.527,41.92,93.448,93.448,93.448
			c51.528,0,93.449-41.921,93.449-93.448v-47.789V99.729H319.031z"/>
	</g>
</g>
</svg>