<svg xmlns="http://www.w3.org/2000/svg" width="54" height="54" fill="none" viewBox="0 0 54 54">
  <rect width="54" height="54" fill="#84BF75" rx="10"/>
  <g clip-path="url(#a)">
    <path fill="#EEE8DC" fill-rule="evenodd" d="M11.26 11.26a.889.889 0 0 1 1.257 0l3.816 3.816v-2.298a.889.889 0 1 1 1.778 0v5.333h-5.333a.889.889 0 1 1 0-1.778h2.298l-3.816-3.816a.889.889 0 0 1 0-1.257Zm31.48 31.48a.89.89 0 0 1-1.257 0l-3.816-3.817v2.3a.89.89 0 0 1-1.778 0v-5.334h5.333a.889.889 0 0 1 0 1.778h-2.299l3.816 3.816a.889.889 0 0 1 0 1.257Zm-31.48 0a.889.889 0 0 1 0-1.257l3.816-3.816h-2.298a.889.889 0 0 1 0-1.778h5.333v5.333a.889.889 0 1 1-1.778 0v-2.299l-3.816 3.816a.89.89 0 0 1-1.257 0Zm31.48-31.48a.889.889 0 0 1 0 1.257l-3.817 3.816h2.3a.889.889 0 1 1 0 1.778h-5.334v-5.333a.889.889 0 0 1 1.778 0v2.298l3.816-3.816a.889.889 0 0 1 1.257 0Z" clip-rule="evenodd"/>
    <path fill="#EEE8DC" d="M36.867 23a3.11 3.11 0 1 1-6.222 0 3.11 3.11 0 0 1 3.11-3.111A3.11 3.11 0 0 1 36.868 23Zm-13.334 0a3.11 3.11 0 1 1-6.222 0 3.11 3.11 0 0 1 3.111-3.111A3.11 3.11 0 0 1 23.533 23Zm5.69-.889a2.223 2.223 0 1 1-4.446 0 2.223 2.223 0 0 1 4.445 0Zm-1.334 9.207c0-2.28 3.553-3.43 5.333-3.43 1.78 0 5.334 1.15 5.334 3.43v1.904H27.889v-1.904Zm-12.444 0c0-2.28 3.553-3.43 5.333-3.43 1.78 0 5.333 1.15 5.333 3.43v1.904H15.444v-1.904Z"/>
    <path fill="#EEE8DC" fill-rule="evenodd" d="M30.59 26.517c-.202.074-.4.153-.596.237-.885.378-1.778.889-2.472 1.572a4.822 4.822 0 0 0-.522.602 4.889 4.889 0 0 0-.522-.602c-.693-.683-1.587-1.194-2.472-1.573a13.093 13.093 0 0 0-.595-.236c1.15-.595 2.629-.895 3.589-.895s2.44.3 3.59.895Z" clip-rule="evenodd"/>
  </g>
  <defs>
    <clipPath id="a">
      <path fill="#fff" d="M11 11h32v32H11z"/>
    </clipPath>
  </defs>
</svg>
