<svg xmlns="http://www.w3.org/2000/svg" width="54" height="54" fill="none" viewBox="0 0 54 54">
  <rect width="54" height="54" fill="#84BF75" rx="10"/>
  <path fill="#EEE8DC" d="M39 23h-3.4c-.4 0-.8-.2-1.2-.4L31.8 20c-.4-.6-1.2-1-2.2-1H29c2.2 0 4-1.8 4-4s-1.8-4-4-4-4 1.8-4 4c0 1.4.8 2.8 2 3.4l-.4.6h-4c-2.2 0-4.6 1-6 3l-1.2 1.6c-.8.8-.4 2 .4 2.6.8.4 1.8.2 2.4-.6l1-1.4c.6-.8 1.4-1.2 2.4-1.2h1.6l-1.4 3.2c-.6 1.2-.8 2.4-.8 3.8v4c0 .6-.4 1-1 1h-5c-1.2 0-2 .8-2 2s.8 2 2 2h7c1.6 0 3-1.4 3-3v-5l7.6 9c1.2 1.8 3.4 3 5.6 3H40L29.2 29.6c-.6-.8-.4-1.6 0-2.6l1.2-3 1.4 1.6c.8.8 2 1.4 3.2 1.4h4c1.2 0 2-.8 2-2s-.8-2-2-2Z"/>
</svg>
