<svg xmlns="http://www.w3.org/2000/svg" width="54" height="54" fill="none" viewBox="0 0 54 54">
  <rect width="54" height="54" fill="#927E64" rx="10"/>
  <path fill="#fff" d="M16 19h23v19H16z"/>
  <path fill="#EEE8DC" d="M43.445 19.43a5.434 5.434 0 0 0-5.017-3.36h-4.723v-2.13a2.785 2.785 0 0 0-.214-1.133 2.626 2.626 0 0 0-.625-.934 2.796 2.796 0 0 0-.954-.64 2.802 2.802 0 0 0-1.101-.23h-6.782a2.306 2.306 0 0 0-1.135.23 2.945 2.945 0 0 0-.92.624 2.79 2.79 0 0 0-.642.952 2.785 2.785 0 0 0-.23 1.114v2.146h-4.69a5.487 5.487 0 0 0-3.827 1.617A5.442 5.442 0 0 0 11 21.51v2.591a2.867 2.867 0 0 0 .855 2.032c.24.244.526.44.839.574l.559 11.08A4.786 4.786 0 0 0 14.8 40.92a4.939 4.939 0 0 0 3.29 1.262h18.708a4.83 4.83 0 0 0 3.273-1.283 4.81 4.81 0 0 0 1.53-3.16l.543-11.046a2.831 2.831 0 0 0 1.53-1.54c.144-.35.217-.722.215-1.1v-2.525a5.407 5.407 0 0 0-.444-2.097ZM23.57 13.906a.663.663 0 0 1 0-.164l.115-.148.132-.098h7.156l.148.115a.326.326 0 0 1 0 .131.328.328 0 0 1 0 .18v2.147h-7.666l.115-2.163Zm12.373 16.49a2.032 2.032 0 0 1-.592 1.427 2.007 2.007 0 0 1-1.449.606H31.09v2.802a2.033 2.033 0 0 1-.593 1.426 2.006 2.006 0 0 1-1.448.608h-3.29a2.058 2.058 0 0 1-1.449-.595 2.049 2.049 0 0 1-.608-1.44v-2.801H20.92a2.06 2.06 0 0 1-1.898-1.25 1.967 1.967 0 0 1-.16-.784v-3.278a2.015 2.015 0 0 1 .61-1.443 2.102 2.102 0 0 1 1.448-.59h2.796v-2.718a2.011 2.011 0 0 1 1.269-1.89c.25-.1.52-.149.79-.143h3.288a2.06 2.06 0 0 1 1.447.59c.379.388.589.903.594 1.443v2.803h2.814a2.06 2.06 0 0 1 1.447.59c.378.386.592.903.592 1.441l-.015 3.195Z"/>
  <path fill="#D73C33" stroke="#D73C33" stroke-linejoin="round" d="M33.975 27.593a.5.5 0 0 0-.5-.5l-3.62.001a.751.751 0 0 1-.736-.734v-3.602a.5.5 0 0 0-.5-.5h-2.386a.5.5 0 0 0-.5.5v3.605a.73.73 0 0 1-.734.73h-3.62a.5.5 0 0 0-.5.5v2.376a.5.5 0 0 0 .5.5h3.633a.716.716 0 0 1 .672.444.708.708 0 0 1 .052.277v3.616a.5.5 0 0 0 .5.5h2.386a.5.5 0 0 0 .5-.5V31.2a.73.73 0 0 1 .733-.73h3.62a.5.5 0 0 0 .5-.5v-2.377Z"/>
</svg>
