<svg xmlns="http://www.w3.org/2000/svg" width="32" height="32" fill="none" viewBox="0 0 32 32">
  <path fill="#000" fill-rule="evenodd" d="M22.07 29.51c-1.92-.07-7.362-.822-13.06-6.52-5.699-5.697-6.45-11.137-6.52-13.06-.108-2.926 2.134-5.77 4.725-6.881a1.96 1.96 0 0 1 1.927.212c2.133 1.555 3.605 3.907 4.869 5.756a2.006 2.006 0 0 1-.341 2.648l-2.602 1.932a.64.64 0 0 0-.189.821c.59 1.071 1.637 2.666 2.837 3.866 1.2 1.2 2.871 2.317 4.016 2.973a.645.645 0 0 0 .859-.216l1.693-2.577a2.004 2.004 0 0 1 2.742-.443c1.876 1.299 4.065 2.745 5.668 4.797a1.96 1.96 0 0 1 .252 1.98c-1.116 2.604-3.94 4.822-6.878 4.714Z" clip-rule="evenodd"/>
</svg>
