<svg xmlns="http://www.w3.org/2000/svg" width="32" height="32" fill="none" viewBox="0 0 32 32">
  <path fill="#000" d="M28.228 20.53 20.345 7.393c-1.034-1.724-2.617-2.71-4.345-2.71-1.728 0-3.31.986-4.345 2.707L3.772 20.531c-1.048 1.745-1.163 3.606-.313 5.106C4.307 27.14 5.963 28 8 28h16c2.037 0 3.693-.861 4.541-2.361.848-1.5.735-3.362-.313-5.108ZM16 23.4a2.07 2.07 0 0 1-2.067-2.066A2.07 2.07 0 0 1 16 19.265a2.07 2.07 0 0 1 2.067 2.068A2.07 2.07 0 0 1 16 23.4Zm2.177-9.899c-.014.041-1.868 4.624-1.868 4.624a.333.333 0 0 1-.308.208.334.334 0 0 1-.308-.208L13.84 13.54a2.398 2.398 0 0 1-.172-.873A2.336 2.336 0 0 1 16 10.333a2.336 2.336 0 0 1 2.177 3.167Z"/>
</svg>
