<svg xmlns="http://www.w3.org/2000/svg" width="54" height="54" fill="none" viewBox="0 0 54 54">
  <rect width="54" height="54" fill="#927E64" rx="10"/>
  <path fill="#EEE8DC" d="M25.92 12.805v5.156h1.16v-5.156h-1.16Zm2.256 0v4.125l5.156-2.063-5.156-2.062ZM26.5 18.992c-3.094 3.094-9.281 7.219-12.375 8.25 0 4.125-1.031 13.406-2.063 15.469h10.313C23.406 41.68 26.5 33.43 26.5 30.336c0 3.094 3.094 11.344 4.125 12.375h10.313c-1.032-2.063-2.063-11.344-2.063-15.469-3.094-1.031-9.281-5.156-12.375-8.25Zm-9.281 11.344h5.156v5.156h-5.156v-5.156Z"/>
</svg>
