<svg xmlns="http://www.w3.org/2000/svg" width="54" height="54" fill="none" viewBox="0 0 54 54">
  <rect width="54" height="54" fill="#927E64" rx="10"/>
  <path fill="#EEE8DC" d="M24.686 12.807a3.01 3.01 0 0 1 3.63 0l12.716 9.629c1.62 1.226.75 3.785-1.284 3.795H13.252c-2.032-.01-2.903-2.57-1.281-3.795l12.715-9.629Zm1.814 8.981c.51 0 .998-.2 1.359-.557a1.895 1.895 0 0 0 0-2.693 1.931 1.931 0 0 0-2.718 0 1.895 1.895 0 0 0 0 2.693c.36.357.85.557 1.359.557ZM14.969 28.77v7.616h3.844V28.77h-3.844Zm6.406 0v7.616h3.844V28.77h-3.844Zm6.406 0v7.616h3.844V28.77h-3.844Zm6.407 0v7.616h3.843V28.77h-3.843ZM11.125 42.096c0-1.751 1.435-3.173 3.203-3.173h24.344c1.768 0 3.203 1.422 3.203 3.173v.635c0 .336-.135.66-.375.897-.24.238-.566.372-.906.372H12.406c-.34 0-.665-.134-.906-.372a1.263 1.263 0 0 1-.375-.897v-.635Z"/>
</svg>
