<svg xmlns="http://www.w3.org/2000/svg" width="54" height="54" fill="none" viewBox="0 0 54 54">
  <rect width="54" height="54" fill="#927E64" rx="10"/>
  <path fill="#EEE8DC" fill-rule="evenodd" d="M35.98 38.485a2.732 2.732 0 0 0 3.858 0 2.714 2.714 0 0 0 0-3.845 2.732 2.732 0 0 0-3.857 0 2.714 2.714 0 0 0 0 3.845ZM44.2 27.5l-3.564-4.531h-4.545V27.5H44.2ZM14.162 38.485a2.732 2.732 0 0 0 3.857 0 2.714 2.714 0 0 0 0-3.845 2.732 2.732 0 0 0-3.857 0 2.714 2.714 0 0 0 0 3.845ZM36.091 20.25h5.454L47 27.5v9.063h-3.636a5.429 5.429 0 0 1-1.598 3.844 5.463 5.463 0 0 1-7.714 0 5.429 5.429 0 0 1-1.597-3.844h-10.91a5.429 5.429 0 0 1-1.597 3.844 5.464 5.464 0 0 1-7.714 0 5.429 5.429 0 0 1-1.598-3.844H7V16.625A3.618 3.618 0 0 1 10.636 13h25.455v7.25ZM26.656 16a2.344 2.344 0 0 1 1.657 4L18.001 30.314A2.345 2.345 0 1 1 14.687 27l10.312-10.312A2.344 2.344 0 0 1 26.656 16Zm-1.327 4.212c.422-.072.947-.163 1.521-.736a.469.469 0 0 0-.663-.663c-.362.362-.636.41-1.014.475h-.002c-.422.072-.947.163-1.521.737s-.665 1.099-.737 1.52v.003c-.066.378-.113.652-.476 1.015-.363.363-.636.41-1.016.475-.422.073-.947.163-1.521.737-.574.573-.665 1.098-.737 1.52v.002c-.066.379-.112.652-.476 1.015-.363.364-.636.41-1.016.476-.422.072-.947.163-1.521.736a.469.469 0 0 0 .663.663c.362-.362.636-.41 1.015-.475h.001c.422-.072.947-.163 1.521-.737s.665-1.099.737-1.52v-.002c.065-.379.113-.653.476-1.015.363-.364.637-.41 1.016-.476.422-.072.947-.163 1.521-.736.574-.574.664-1.099.737-1.52v-.002c.065-.38.113-.654.476-1.017.362-.362.636-.41 1.015-.475h.001Zm-1.89-3.29-8.518 8.517-.338-.338c-.732-.733-.781-1.87-.11-2.543l6.085-6.084c.672-.672 1.81-.624 2.543.109l.338.338ZM19.56 30.078l8.518-8.518.338.338c.732.733.781 1.87.11 2.543l-6.085 6.084c-.672.672-1.81.624-2.543-.109l-.338-.338Z" clip-rule="evenodd"/>
</svg>
