<svg xmlns="http://www.w3.org/2000/svg" width="54" height="54" fill="none" viewBox="0 0 54 54">
  <rect width="54" height="54" fill="#927E64" rx="10"/>
  <g clip-path="url(#a)">
    <path fill="#EEE8DC" d="M39.206 11.36s-24.395-.008-24.388 0c-2.248 0-3.512 1.162-3.512 3.537V39.38c0 2.221 1.137 3.384 3.383 3.384h24.587c2.246 0 3.384-1.105 3.384-3.385V14.898c0-2.318-1.137-3.537-3.454-3.537ZM26.373 22.687c0 .768-.699 1.59-1.607 1.59v12.968c0 1.841-2.509 1.841-2.509 0V24.278c-.883 0-1.653-.681-1.653-1.7V15.44c0-.621.898-.645.898.024v5.276h.751v-5.325c0-.57.864-.607.864.025v5.3h.777v-5.317c0-.596.839-.62.839.024v5.293h.764v-5.317c0-.59.877-.614.877.024v7.239Zm6.694 14.552c0 1.8-2.514 1.774-2.514 0v-7.991h-1.339V17.099c0-2.828 3.853-2.828 3.853 0v20.14Z"/>
  </g>
  <defs>
    <clipPath id="a">
      <path fill="#fff" d="M11 11h32v32H11z"/>
    </clipPath>
  </defs>
</svg>
