<svg xmlns="http://www.w3.org/2000/svg" width="54" height="54" fill="none" viewBox="0 0 54 54">
  <rect width="54" height="54" fill="#927E64" rx="10"/>
  <path fill="#EEE8DC" d="M15.044 30.799c2.02 0 3.654-1.68 3.654-3.758 0-2.067-1.634-3.747-3.654-3.747-2.01 0-3.644 1.68-3.644 3.747 0 2.078 1.633 3.758 3.644 3.758Zm20.461 6.45a.37.37 0 0 1 .519.083l.675.96a.406.406 0 0 1-.08.536l-4.957 3.701a.375.375 0 0 1-.52-.082l-.673-.96a.403.403 0 0 1 .08-.535l4.956-3.702Zm-5.602-4.771-1.965-3.544-1.032.775 1.965 3.563 1.032-.794Zm-4.586-8.279L17.673 10.4l-1.462.01 8.066 14.574 1.04-.785Zm7.197 7.301c.432-.323 1.42-.8 1.986-.8h7c1.382 0 2.1 1.39 2.1 2.803 0 1.42-.718 2.097-2.1 2.097h-6.3l-7.585 5.951c-2.666 1.974-4.281-.194-4.281-.194l-5.939-6.11c-.996-1.228-.78-3.563.414-4.597l8.217-6.018c.817-.7 2.028-.59 2.72.24.683.84.575 2.096-.242 2.798l-5.26 3.96 3.779 3.838 5.491-3.968Z"/>
</svg>
