<svg xmlns="http://www.w3.org/2000/svg" width="54" height="54" fill="none" viewBox="0 0 54 54">
  <rect width="54" height="54" fill="#927E64" rx="10"/>
  <g clip-path="url(#a)">
    <path fill="#EEE8DC" d="M21.723 10.475c-3.072-.017-6.062 2.97-4.697 6.679h-5.151c-.862 0-1.689.346-2.298.961a3.299 3.299 0 0 0-.952 2.32v3.283c0 .435.171.853.476 1.16.305.308.718.481 1.149.481h14.625v-4.923h3.25v4.923H42.75a1.62 1.62 0 0 0 1.149-.48 1.65 1.65 0 0 0 .476-1.161v-3.282c0-.87-.342-1.705-.952-2.32a3.234 3.234 0 0 0-2.298-.962h-5.151c1.901-5.366-5.249-9.157-8.548-4.53l-.926 1.248-.926-1.28c-1.024-1.46-2.438-2.1-3.852-2.117Zm-.098 3.397c1.446 0 2.177 1.772 1.154 2.806-1.024 1.034-2.779.295-2.779-1.165 0-.435.171-.853.476-1.16a1.617 1.617 0 0 1 1.149-.481Zm9.75 0c1.446 0 2.178 1.772 1.154 2.806s-2.779.295-2.779-1.165c0-.435.171-.853.476-1.16a1.617 1.617 0 0 1 1.149-.481ZM10.25 27v13.128c0 .87.342 1.705.952 2.321.61.616 1.436.961 2.298.961h26a3.23 3.23 0 0 0 2.298-.961c.61-.616.952-1.45.952-2.32V27H28.125v13.128h-3.25V27H10.25Z"/>
  </g>
  <defs>
    <clipPath id="a">
      <path fill="#fff" d="M8 11h37v32H8z"/>
    </clipPath>
  </defs>
</svg>
