<svg xmlns="http://www.w3.org/2000/svg" width="54" height="54" fill="none" viewBox="0 0 54 54">
  <rect width="54" height="54" fill="#927E64" rx="10"/>
  <g clip-path="url(#a)">
    <path fill="#EEE8DC" d="M38.533 25.276c0-1.679-1.36-2.91-3.039-2.91-.076 0-.152.003-.228.008v5.834c.076.005.152.008.228.009 1.679 0 3.04-1.262 3.04-2.941Z"/>
    <path fill="#EEE8DC" d="M39.934 11.388h-25.69a3.91 3.91 0 0 0-3.91 3.91v25.69a3.91 3.91 0 0 0 3.91 3.909h25.69a3.91 3.91 0 0 0 3.91-3.91v-25.69a3.91 3.91 0 0 0-3.91-3.91Zm-20.428 9.088 15.76.004c.076-.004.152-.006.229-.006 2.77 0 5.015 2.031 5.014 4.801 0 2.77-2.245 4.854-5.015 4.854-.076 0-.152-.003-.227-.006v.74a2.814 2.814 0 0 1-2.814 2.813H22.32a2.814 2.814 0 0 1-2.813-2.814V20.476ZM41.063 34.38a2.814 2.814 0 0 1-2.813 2.814H16.36a2.814 2.814 0 0 1-2.814-2.814v-.097h27.517v.097Z"/>
  </g>
  <defs>
    <clipPath id="a">
      <path fill="#fff" d="M10 11h34v34H10z"/>
    </clipPath>
  </defs>
</svg>
