<svg xmlns="http://www.w3.org/2000/svg" width="54" height="54" fill="none" viewBox="0 0 54 54">
  <rect width="54" height="54" fill="#927E64" rx="10"/>
  <path fill="#EEE8DC" d="M10.375 27.02v-.48c0-.15.045-.27.15-.375a.498.498 0 0 1 .375-.15h11.37c.15 0 .27.045.375.15.105.105.15.225.15.375v.48c0 .15-.045.27-.15.375a.498.498 0 0 1-.375.15h-.66v2.475h3.18c.03-.42.21-.78.525-1.065.315-.285.69-.435 1.125-.435.435 0 .795.15 1.11.435.315.285.48.645.525 1.065h1.98v-5.085a.78.78 0 0 1-.525-.24.77.77 0 0 1-.225-.555v-.465c0-.21.075-.405.24-.57a.793.793 0 0 1 .585-.24h2.985c.225 0 .42.075.57.24.15.165.225.345.225.57v.465c0 .21-.075.405-.21.555-.135.15-.3.24-.51.24v5.085h2.34c.405 0 .765.15 1.065.45.3.3.45.66.45 1.065v4.395l5.595 7.305h-7.11v-4.56h-1.065c.165.39.24.81.24 1.245 0 .915-.315 1.68-.96 2.34-.645.645-1.425.975-2.325.975-.915 0-1.68-.33-2.34-.975a3.194 3.194 0 0 1-.975-2.34c0-.435.075-.855.24-1.245h-1.5a3.3 3.3 0 0 1 .255 1.245c0 .915-.33 1.68-.975 2.34-.645.66-1.425.975-2.34.975-.915 0-1.68-.33-2.325-.975-.645-.645-.96-1.425-.96-2.34 0-.435.075-.855.24-1.245h-1.785c.18.435.27.855.27 1.245 0 .915-.33 1.68-.975 2.34-.645.66-1.425.975-2.34.975-.915 0-1.68-.33-2.34-.975-.66-.645-.975-1.425-.975-2.34 0-.435.09-.855.255-1.26a1.482 1.482 0 0 1-.915-.51 1.491 1.491 0 0 1-.36-.99v-1.29h-.03v-8.325H10.9a.498.498 0 0 1-.375-.15.494.494 0 0 1-.15-.375Zm3.075 5.91c0 .315.105.585.33.81.225.225.495.33.81.33h2.16c.315 0 .585-.105.795-.33.21-.225.33-.495.33-.81v-3.45a1.051 1.051 0 0 0-.33-.795 1.05 1.05 0 0 0-.795-.33h-2.145c-.315 0-.585.105-.81.345-.225.225-.33.48-.33.78v3.45h-.015Zm14.22-16.785c0 .615.24 1.14.705 1.56 0 .3.135.645.39 1.02s.54.6.84.66c.06.33.225.615.465.855.24.225.54.375.885.45a.793.793 0 0 0-.24.585c0 .27.09.495.27.675.18.18.405.27.675.27s.495-.09.69-.285a.896.896 0 0 0 .285-.675c0-.03 0-.075-.015-.135-.015-.06-.015-.12-.015-.15h.045c.315 0 .585-.12.81-.345.225-.225.345-.51.345-.825 0-.15-.06-.33-.18-.57.255-.135.465-.375.615-.705h.675a2.18 2.18 0 0 0 1.5-.675c.42-.42.63-.915.63-1.515 0-.51-.165-.96-.495-1.35-.33-.39-.75-.645-1.245-.78-.12-.6-.435-1.095-.93-1.485a2.663 2.663 0 0 0-1.68-.585c-.615 0-1.155.195-1.62.57-.465.375-.78.87-.93 1.455h-.165c-.615 0-1.155.195-1.62.585-.465.375-.69.855-.69 1.395Z"/>
</svg>
