<svg xmlns="http://www.w3.org/2000/svg" width="54" height="54" fill="none" viewBox="0 0 54 54">
  <rect width="54" height="54" fill="#927E64" rx="10"/>
  <g clip-path="url(#a)">
    <path fill="#EEE8DC" d="M38 14c.55 0 1-.45 1-1v-1c0-.55-.45-1-1-1H16c-.55 0-1 .45-1 1v1c0 .55.45 1 1 1h1v9.794c-1.262.631-2 1.387-2 2.206 0 4.2 2.163 7.888 5.425 10.031l-1.338 4.388A1.998 1.998 0 0 0 21 43h12c1.344 0 2.306-1.3 1.913-2.581l-1.338-4.388C36.837 33.888 39 30.2 39 26c0-.819-.737-1.575-2-2.206V14h1Zm-18 1.5c0-.275.225-.5.5-.5h3c.275 0 .5.225.5.5v1c0 .275-.225.5-.5.5h-3a.501.501 0 0 1-.5-.5v-1ZM27 28c-4.819 0-8.725-.894-8.725-2 0-1.106 3.906-2 8.725-2 4.819 0 8.725.894 8.725 2 0 1.106-3.906 2-8.725 2Z"/>
  </g>
  <defs>
    <clipPath id="a">
      <path fill="#fff" d="M15 11h24v32H15z"/>
    </clipPath>
  </defs>
</svg>
