<svg xmlns="http://www.w3.org/2000/svg" width="54" height="54" fill="none" viewBox="0 0 54 54">
  <rect width="54" height="54" fill="#927E64" rx="10"/>
  <path fill="#EEE8DC" d="M27.5 31.125a3.625 3.625 0 1 0 0-7.25 3.625 3.625 0 0 0 0 7.25Z"/>
  <path fill="#EEE8DC" d="M41.04 27.192a15.125 15.125 0 0 0-13.54-9.66 15.125 15.125 0 0 0-13.54 9.66.906.906 0 0 0 0 .616 15.125 15.125 0 0 0 13.54 9.66 15.125 15.125 0 0 0 13.54-9.66.907.907 0 0 0 0-.616ZM27.5 33.39a5.891 5.891 0 1 1 5.89-5.891 5.9 5.9 0 0 1-5.89 5.89Z"/>
</svg>
