<svg xmlns="http://www.w3.org/2000/svg" width="54" height="54" fill="none" viewBox="0 0 54 54">
  <rect width="54" height="54" fill="#927E64" rx="10"/>
  <g clip-path="url(#a)">
    <path fill="#EEE8DC" d="M25 11c1.106 0 2 .894 2 2v.75l6-.75c1.106 0 2 .894 2 2 0 1.106-.894 2-2 2l-6-.75-1.938-.244L25 16l-.063.006L23 16.25 17 17c-1.106 0-2-.894-2-2 0-1.106.894-2 2-2l6 .75V13c0-1.106.894-2 2-2ZM11 25c0-1.106.894-2 2-2h6l1.413-1.413A1.996 1.996 0 0 1 21.825 21h1.169v-2.738l2-.25 2 .25V21h1.169c.53 0 1.037.212 1.412.587L31 23h2c5.525 0 10 4.475 10 10 0 1.106-.894 2-2 2h-4c-1.106 0-2-.894-2-2 0-1.106-.894-2-2-2h-2.256A6.993 6.993 0 0 1 25 34a6.993 6.993 0 0 1-5.744-3H13c-1.106 0-2-.894-2-2v-4Zm27.3 12.462A.757.757 0 0 1 39 37c.306 0 .575.181.7.462l1.137 2.65c.113.257.17.538.17.82v.074c0 1.106-.895 2-2 2-1.107 0-2-.894-2-2v-.075c0-.281.056-.556.168-.819l1.138-2.65H38.3Z"/>
  </g>
  <defs>
    <clipPath id="a">
      <path fill="#fff" d="M11 11h32v32H11z"/>
    </clipPath>
  </defs>
</svg>
